<svg id="svg" xmlns="http://www.w3.org/2000/svg" xmlns:xlink="http://www.w3.org/1999/xlink" width="400" height="400" viewBox="0, 0, 400,400"><g id="svgg"><path id="path0" d="M179.372 36.046 C 145.404 40.405,112.655 55.729,88.256 78.682 C 81.074 85.437,80.206 88.432,84.502 91.626 C 87.568 93.905,89.698 92.990,97.466 86.063 C 193.868 0.085,344.586 62.090,353.529 191.406 L 354.042 198.828 337.756 182.617 C 320.030 164.972,318.630 164.085,314.874 168.116 C 311.127 172.138,311.595 172.796,334.539 195.839 C 346.230 207.581,356.164 217.188,356.614 217.188 C 357.064 217.188,367.010 207.605,378.716 195.893 C 401.749 172.849,402.727 171.460,398.571 167.699 C 394.800 164.286,392.860 165.450,378.469 179.756 L 365.040 193.106 364.478 186.201 C 356.920 93.351,271.676 24.202,179.372 36.046 M21.284 204.107 C -1.749 227.151,-2.727 228.540,1.429 232.301 C 5.199 235.713,7.141 234.549,21.516 220.258 L 34.931 206.923 35.465 213.032 C 44.862 320.574,150.398 390.424,252.344 356.573 C 280.088 347.360,318.705 321.363,317.831 312.486 C 317.108 305.143,311.834 305.643,302.534 313.937 C 205.903 400.119,55.981 338.216,46.459 208.203 L 45.944 201.172 62.237 217.383 C 79.970 235.027,81.371 235.915,85.126 231.884 C 88.873 227.862,88.405 227.204,65.461 204.161 C 53.770 192.419,43.836 182.813,43.386 182.813 C 42.936 182.813,32.990 192.395,21.284 204.107 " stroke="none" fill="white" fill-rule="evenodd"></path></g></svg>